# xmcd
#
# Track frame offsets:
# 150
# 16325
# 33187
# 53082
# 70977
# 88852
# 105500
# 121560
# 134870
# 154875
# 169197
# 184677
# 202090
#
# Disc length: 2955 seconds
#
#
# Revision: 0
# Processed by: cddbd v1.5.2PL0 Copyright (c) Steve Scherf et al.
# Submitted via: Nero 7, 11, 10, 0 
#
DISCID=b00b890d
DTITLE=Troy Gonyea - Troy Gonyea
DYEAR=2001
DGENRE=Blues
TTITLE0=Wonderin'
TTITLE1=What Have I Done Wrong
TTITLE2=Bad Luck Blues
TTITLE3=Realize
TTITLE4=Tell Me What's The Reason
TTITLE5=Irene
TTITLE6=Some Other Day, Some Other Time
TTITLE7=Can't Stand To See You Go
TTITLE8=This Can't Go On
TTITLE9=Tiajuana aka Suitcase Blues
TTITLE10=What Will Lucy Do
TTITLE11=Mary Ann
TTITLE12=Canned Heat
EXTD=
EXTT0=Wonderin'
EXTT1=What Have I Done Wrong
EXTT2=Bad Luck Blues
EXTT3=Realize
EXTT4=Tell Me What's The Reason
EXTT5=Irene
EXTT6=Some Other Day, Some Other Time
EXTT7=Can't Stand To See You Go
EXTT8=This Can't Go On
EXTT9=Tiajuana aka Suitcase Blues
EXTT10=What Will Lucy Do
EXTT11=Mary Ann
EXTT12=Canned Heat
PLAYORDER=
